<svg width="2298" height="1399" viewBox="0 0 2298 1399" fill="none" xmlns="http://www.w3.org/2000/svg">
<g clip-path="url(#clip0)">
<g opacity="0.35" filter="url(#filter0_f)">
<path d="M1371 608.076L1782.5 361L2194 608.076V609.924L1782.5 857L1371 609.924V608.076Z" fill="url(#paint0_linear)"/>
</g>
<g opacity="0.35" filter="url(#filter1_f)">
<path d="M70 592.076L481.5 345L893 592.076V593.924L481.5 841L70 593.924V592.076Z" fill="url(#paint1_linear)"/>
</g>
<g filter="url(#filter2_d)">
<circle cx="577.5" cy="625.5" r="40.6875" fill="url(#paint2_linear)"/>
<path d="M592.652 637.943L594.46 626.459H583.153V619.01C583.153 615.868 584.73 612.803 589.794 612.803H594.938V603.026C594.938 603.026 590.272 602.25 585.813 602.25C576.497 602.25 570.414 607.751 570.414 617.707V626.459H560.062V637.943H570.414V665.706C572.492 666.025 574.618 666.187 576.783 666.187C578.949 666.187 581.075 666.025 583.153 665.706V637.943H592.652Z" fill="white"/>
</g>
<g filter="url(#filter3_d)">
<circle cx="1723.5" cy="290.5" r="28.4375" fill="white"/>
<path d="M1723.5 318.938C1739.21 318.938 1751.94 306.206 1751.94 290.5C1751.94 274.794 1739.21 262.062 1723.5 262.062C1707.79 262.062 1695.06 274.794 1695.06 290.5C1695.06 302.038 1701.93 311.971 1711.81 316.43C1711.82 316.122 1711.84 315.84 1711.85 315.598C1711.87 315.269 1711.88 315.013 1711.88 314.87C1711.88 314.016 1712.46 309.777 1712.46 309.777L1716.01 295.183C1715.47 294.294 1715.06 292.414 1715.06 290.978C1715.06 284.348 1718.75 282.912 1721 282.912C1723.88 282.912 1724.53 286.022 1724.53 288.312C1724.53 289.524 1723.9 291.42 1723.25 293.371C1722.57 295.439 1721.86 297.569 1721.86 299.011C1721.86 301.813 1724.63 303.215 1726.54 303.215C1731.6 303.215 1736.25 296.857 1736.25 290.5C1736.25 284.143 1733.28 276.452 1723.53 276.452C1713.79 276.452 1709.42 283.869 1709.42 289.543C1709.42 293.371 1710.85 296.174 1711.57 296.652C1711.78 296.835 1712.13 297.397 1711.88 298.19C1711.63 298.983 1711.18 300.754 1710.99 301.54C1710.97 301.722 1710.75 302.032 1710.07 301.813C1709.21 301.54 1703.78 298.122 1703.78 289.543C1703.78 280.964 1710.51 270.983 1723.53 270.983C1736.56 270.983 1743.22 279.733 1743.22 290.5C1743.22 301.267 1734.51 308.137 1727.88 308.137C1722.57 308.137 1720.49 305.767 1720.12 304.582L1718.1 312.272C1717.62 313.548 1716.74 315.841 1715.64 317.837C1718.14 318.554 1720.77 318.938 1723.5 318.938Z" fill="#BB0F23"/>
</g>
<g filter="url(#filter4_d)">
<circle cx="499" cy="458" r="28" fill="#FFFA37"/>
<path fill-rule="evenodd" clip-rule="evenodd" d="M509.051 442.371C507.12 439.938 503.935 438 499.024 438C494.818 438.041 486.408 440.369 486.408 449.348C486.408 450.659 486.511 452.415 486.602 453.708C486.495 453.677 486.364 453.619 486.155 453.519L486.127 453.505C485.758 453.329 485.198 453.06 484.42 453.06C483.633 453.06 482.872 453.368 482.308 453.825C481.746 454.279 481.267 454.977 481.267 455.821C481.267 456.877 481.861 457.578 482.556 458.027C483.173 458.426 483.951 458.681 484.567 458.883L484.628 458.903C485.287 459.119 485.77 459.284 486.103 459.492C486.363 459.653 486.402 459.756 486.407 459.853C486.404 459.867 486.396 459.896 486.378 459.945C486.343 460.045 486.284 460.18 486.197 460.349C486.025 460.685 485.773 461.1 485.474 461.541C484.871 462.432 484.134 463.346 483.584 463.875C483.042 464.397 482.151 465.046 481.22 465.562C480.759 465.818 480.307 466.03 479.903 466.176C479.486 466.327 479.181 466.384 478.992 466.384C478.843 466.384 478.713 466.415 478.657 466.429C478.578 466.449 478.495 466.475 478.414 466.505C478.253 466.566 478.061 466.657 477.871 466.785C477.508 467.029 477 467.522 477 468.3C477 468.706 477.095 469.05 477.26 469.348C477.404 469.609 477.59 469.808 477.696 469.922L477.712 469.938L477.742 469.97C478.329 470.602 479.3 471.041 480.243 471.342C481.054 471.601 481.96 471.794 482.842 471.91C482.855 471.967 482.868 472.028 482.882 472.096L482.887 472.117C482.942 472.379 483.016 472.727 483.124 473.047C483.227 473.349 483.412 473.795 483.791 474.114C484.274 474.519 484.906 474.56 485.318 474.558C485.761 474.556 486.278 474.494 486.768 474.435L486.81 474.43C487.499 474.347 488.221 474.261 488.969 474.261C490.333 474.261 491.207 474.831 492.579 475.767L492.588 475.774C493.063 476.098 493.595 476.462 494.2 476.819C496.224 478.015 497.869 478.005 498.801 477.999C498.863 477.999 498.921 477.998 498.976 477.998C499.032 477.998 499.09 477.999 499.152 477.999C500.086 478.005 501.775 478.016 503.8 476.819C504.405 476.462 504.937 476.098 505.412 475.774L505.421 475.767C506.793 474.831 507.667 474.261 509.031 474.261C509.779 474.261 510.501 474.347 511.19 474.43L511.232 474.435C511.722 474.494 512.239 474.556 512.682 474.558C513.094 474.56 513.726 474.519 514.209 474.114C514.588 473.795 514.773 473.349 514.876 473.047C514.984 472.727 515.058 472.38 515.113 472.117L515.118 472.096C515.132 472.028 515.145 471.967 515.158 471.91C516.04 471.794 516.946 471.601 517.757 471.342C518.7 471.041 519.671 470.601 520.258 469.97L520.288 469.938L520.303 469.922C520.41 469.808 520.596 469.609 520.74 469.348C520.905 469.05 521 468.706 521 468.3C521 467.522 520.492 467.029 520.129 466.785C519.939 466.657 519.747 466.566 519.586 466.505C519.505 466.475 519.422 466.449 519.343 466.429C519.287 466.415 519.157 466.384 519.008 466.384C518.819 466.384 518.514 466.327 518.097 466.176C517.693 466.03 517.241 465.818 516.78 465.562C515.849 465.046 514.958 464.397 514.416 463.875C513.866 463.346 513.129 462.432 512.526 461.541C512.227 461.1 511.975 460.685 511.803 460.349C511.716 460.18 511.657 460.045 511.622 459.945C511.604 459.896 511.596 459.867 511.593 459.853C511.598 459.756 511.637 459.653 511.897 459.492C512.23 459.284 512.713 459.119 513.372 458.903L513.433 458.883C514.049 458.681 514.827 458.426 515.444 458.027C516.139 457.578 516.733 456.877 516.733 455.821C516.733 454.977 516.254 454.279 515.692 453.825C515.128 453.368 514.367 453.06 513.58 453.06C512.802 453.06 512.242 453.329 511.873 453.505L511.845 453.519C511.636 453.619 511.505 453.677 511.398 453.708C511.489 452.415 511.592 450.659 511.592 449.348C511.592 447.567 510.945 444.758 509.051 442.371ZM490.566 443.545C488.964 445.551 488.415 447.932 488.415 449.348C488.415 450.66 488.527 452.483 488.62 453.79C488.652 454.224 488.563 454.73 488.183 455.132C487.8 455.538 487.278 455.67 486.811 455.67C486.138 455.67 485.626 455.424 485.298 455.266L485.26 455.248C484.894 455.073 484.702 454.991 484.42 454.991C484.163 454.991 483.849 455.102 483.6 455.303C483.348 455.507 483.275 455.707 483.275 455.821C483.275 456.054 483.36 456.22 483.676 456.424C484.049 456.665 484.58 456.846 485.276 457.075L485.336 457.095C485.914 457.284 486.63 457.519 487.195 457.871C487.829 458.266 488.415 458.901 488.415 459.88C488.415 460.137 488.344 460.384 488.278 460.571C488.206 460.774 488.108 460.988 487.998 461.202C487.779 461.63 487.483 462.114 487.157 462.596C486.51 463.551 485.687 464.584 485.004 465.241C484.313 465.906 483.274 466.653 482.223 467.236C481.694 467.529 481.141 467.792 480.609 467.985C480.132 468.157 479.618 468.291 479.124 468.313C479.112 468.318 479.099 468.324 479.084 468.331C479.062 468.343 479.04 468.355 479.022 468.367L479.012 468.374C479.014 468.387 479.016 468.397 479.018 468.404C479.022 468.419 479.027 468.43 479.033 468.442C479.052 468.477 479.083 468.516 479.206 468.648L479.239 468.683C479.461 468.922 480.008 469.232 480.876 469.509C481.703 469.774 482.68 469.964 483.604 470.052C484.066 470.096 484.332 470.385 484.445 470.54C484.561 470.7 484.628 470.869 484.666 470.982C484.741 471.199 484.798 471.466 484.843 471.677L484.849 471.709C484.911 471.997 484.964 472.243 485.033 472.448C485.058 472.521 485.081 472.576 485.1 472.617C485.144 472.622 485.212 472.627 485.31 472.627C485.735 472.625 486.16 472.562 486.58 472.511C487.254 472.43 488.087 472.329 488.969 472.329C491.014 472.329 492.364 473.252 493.668 474.143L493.741 474.193C494.224 474.522 494.707 474.852 495.251 475.173C496.783 476.079 497.949 476.072 498.801 476.067C498.861 476.067 498.92 476.067 498.976 476.067C499.033 476.067 499.091 476.067 499.151 476.067C500.012 476.072 501.217 476.079 502.749 475.173C503.293 474.852 503.776 474.522 504.259 474.193L504.332 474.143C505.636 473.252 506.986 472.329 509.031 472.329C509.913 472.329 510.746 472.43 511.42 472.511L511.44 472.513C511.984 472.579 512.383 472.625 512.69 472.627C512.788 472.627 512.856 472.622 512.9 472.617C512.919 472.576 512.942 472.521 512.967 472.448C513.036 472.243 513.089 471.997 513.151 471.709L513.157 471.677C513.202 471.466 513.259 471.199 513.334 470.982C513.372 470.869 513.439 470.7 513.555 470.54C513.668 470.385 513.934 470.096 514.396 470.052C515.32 469.964 516.297 469.774 517.124 469.509C517.992 469.232 518.539 468.922 518.761 468.683L518.794 468.648C518.917 468.516 518.948 468.477 518.967 468.442C518.973 468.43 518.978 468.419 518.982 468.404C518.984 468.397 518.986 468.387 518.988 468.374L518.978 468.367C518.96 468.355 518.938 468.343 518.916 468.331C518.901 468.324 518.888 468.318 518.876 468.313C518.382 468.291 517.868 468.157 517.391 467.985C516.859 467.792 516.306 467.529 515.777 467.236C514.726 466.653 513.687 465.906 512.996 465.241C512.313 464.584 511.49 463.551 510.843 462.596C510.517 462.114 510.221 461.63 510.002 461.202C509.892 460.988 509.794 460.774 509.722 460.571C509.656 460.384 509.585 460.137 509.585 459.88C509.585 458.901 510.171 458.266 510.805 457.871C511.37 457.519 512.086 457.284 512.664 457.095L512.724 457.075C513.42 456.846 513.951 456.665 514.324 456.424C514.64 456.22 514.725 456.054 514.725 455.821C514.725 455.707 514.652 455.507 514.4 455.303C514.151 455.102 513.837 454.991 513.58 454.991C513.298 454.991 513.106 455.073 512.74 455.248L512.702 455.266C512.374 455.424 511.862 455.67 511.189 455.67C510.722 455.67 510.2 455.538 509.817 455.132C509.437 454.73 509.348 454.224 509.38 453.79C509.473 452.483 509.585 450.66 509.585 449.348C509.585 447.929 509.045 445.547 507.455 443.543C505.902 441.585 503.305 439.931 499.024 439.931C494.742 439.931 492.132 441.586 490.566 443.545Z" fill="black"/>
<path fill-rule="evenodd" clip-rule="evenodd" d="M490.566 443.546C488.964 445.551 488.415 447.932 488.415 449.348C488.415 450.66 488.526 452.483 488.62 453.79C488.651 454.224 488.562 454.73 488.183 455.132C487.799 455.538 487.277 455.67 486.811 455.67C486.137 455.67 485.625 455.424 485.297 455.266L485.259 455.248C484.894 455.073 484.702 454.991 484.419 454.991C484.162 454.991 483.848 455.102 483.599 455.303C483.347 455.507 483.274 455.707 483.274 455.821C483.274 456.054 483.36 456.22 483.675 456.424C484.048 456.665 484.579 456.847 485.275 457.075L485.336 457.095C485.914 457.284 486.63 457.519 487.195 457.871C487.829 458.266 488.415 458.902 488.415 459.88C488.415 460.137 488.344 460.384 488.277 460.571C488.205 460.774 488.107 460.988 487.998 461.202C487.779 461.631 487.482 462.114 487.156 462.596C486.509 463.551 485.687 464.584 485.003 465.241C484.312 465.906 483.273 466.653 482.223 467.236C481.693 467.529 481.141 467.792 480.608 467.985C480.131 468.157 479.617 468.292 479.124 468.313C479.112 468.318 479.098 468.324 479.084 468.331C479.061 468.343 479.04 468.355 479.021 468.367L479.012 468.374C479.014 468.387 479.016 468.397 479.017 468.404C479.021 468.42 479.026 468.431 479.032 468.442C479.052 468.477 479.082 468.516 479.206 468.648L479.238 468.683C479.46 468.922 480.008 469.232 480.876 469.51C481.702 469.774 482.68 469.965 483.603 470.052C484.065 470.096 484.332 470.385 484.445 470.54C484.561 470.7 484.627 470.87 484.666 470.982C484.741 471.199 484.797 471.466 484.842 471.677L484.849 471.71C484.91 471.997 484.963 472.243 485.033 472.449C485.057 472.521 485.08 472.577 485.1 472.617C485.144 472.622 485.211 472.627 485.309 472.627C485.734 472.625 486.159 472.562 486.58 472.511C487.253 472.43 488.086 472.329 488.968 472.329C491.014 472.329 492.363 473.252 493.667 474.143L493.74 474.193C494.223 474.522 494.707 474.852 495.25 475.173C496.783 476.079 497.949 476.072 498.801 476.068C498.861 476.067 498.919 476.067 498.976 476.067C499.032 476.067 499.09 476.067 499.15 476.068C500.011 476.072 501.216 476.079 502.748 475.173C503.292 474.852 503.776 474.522 504.258 474.193L504.331 474.143C505.635 473.252 506.985 472.329 509.031 472.329C509.913 472.329 510.746 472.43 511.419 472.511L511.439 472.513C511.984 472.579 512.382 472.625 512.69 472.627C512.787 472.627 512.855 472.622 512.899 472.617C512.919 472.577 512.941 472.521 512.966 472.449C513.035 472.243 513.089 471.997 513.15 471.71L513.157 471.677C513.201 471.466 513.258 471.199 513.333 470.982C513.372 470.869 513.438 470.7 513.554 470.54C513.667 470.385 513.933 470.096 514.395 470.052C515.319 469.965 516.296 469.774 517.123 469.51C517.991 469.232 518.539 468.922 518.761 468.683L518.793 468.648C518.916 468.516 518.947 468.477 518.966 468.442C518.973 468.431 518.977 468.42 518.981 468.404C518.983 468.397 518.985 468.387 518.987 468.374L518.978 468.367C518.959 468.355 518.938 468.343 518.915 468.331C518.901 468.324 518.887 468.318 518.875 468.313C518.382 468.292 517.868 468.157 517.391 467.985C516.858 467.792 516.305 467.529 515.776 467.236C514.725 466.653 513.686 465.906 512.995 465.241C512.312 464.584 511.49 463.551 510.843 462.596C510.517 462.114 510.22 461.631 510.001 461.202C509.891 460.988 509.794 460.774 509.721 460.571C509.655 460.384 509.584 460.137 509.584 459.88C509.584 458.902 510.17 458.266 510.804 457.871C511.369 457.519 512.085 457.284 512.663 457.095L512.724 457.075C513.42 456.847 513.951 456.665 514.323 456.424C514.639 456.22 514.725 456.054 514.725 455.821C514.725 455.707 514.652 455.507 514.399 455.303C514.151 455.102 513.837 454.991 513.58 454.991C513.297 454.991 513.105 455.073 512.739 455.248L512.701 455.266C512.374 455.424 511.862 455.67 511.188 455.67C510.722 455.67 510.2 455.538 509.816 455.132C509.437 454.73 509.348 454.224 509.379 453.79C509.473 452.483 509.584 450.66 509.584 449.348C509.584 447.929 509.045 445.547 507.454 443.543C505.901 441.585 503.304 439.932 499.023 439.932C494.741 439.932 492.131 441.586 490.566 443.546Z" fill="white"/>
</g>
<g filter="url(#filter5_d)">
<path d="M1701.38 606.25C1680.76 606.25 1664 623.01 1664 643.625C1664 664.24 1680.76 681 1701.38 681C1721.99 681 1738.75 664.24 1738.75 643.625C1738.75 623.01 1721.99 606.25 1701.38 606.25Z" fill="url(#paint3_radial)"/>
<path fill-rule="evenodd" clip-rule="evenodd" d="M1693.89 639.514C1693.84 639.53 1693.79 639.515 1693.76 639.477C1692.3 637.565 1691.94 634.278 1691.85 633.015C1691.83 632.772 1691.56 632.635 1691.34 632.757C1686.85 635.262 1682.69 641.188 1682.69 646.909C1682.69 656.737 1689.55 664.982 1701.38 664.982C1712.45 664.982 1720.06 656.484 1720.06 646.91C1720.06 634.382 1711.06 626.058 1703.04 622.295C1702.85 622.207 1702.6 622.388 1702.63 622.593C1703.66 629.344 1702.23 636.687 1693.89 639.514Z" fill="white"/>
</g>
<g filter="url(#filter6_d)">
<circle cx="1853.5" cy="480.5" r="52.9375" fill="#00A82D"/>
</g>
<path d="M1841.02 461.762C1841.02 462.439 1840.97 463.567 1840.31 464.301C1839.59 464.978 1838.49 465.035 1837.83 465.035C1834.12 465.035 1828.96 464.101 1825.45 465.542C1830.81 455.922 1841.2 449.529 1841.13 450.08C1840.64 453.887 1841.02 457.933 1841.02 461.762ZM1852.14 505.439C1852.14 500.755 1855.88 496.918 1860.5 496.918C1861.88 496.918 1862.98 498.047 1862.98 499.457C1862.98 500.417 1862.48 501.207 1861.71 501.658C1860.87 502.175 1859.71 501.934 1858.96 502.618C1858.41 503.069 1857.97 503.803 1857.97 504.593C1857.97 505.439 1858.3 506.229 1858.85 506.794C1859.84 507.809 1861.16 508.374 1862.59 508.374C1866.33 508.374 1869.36 505.27 1869.36 501.433C1869.36 497.99 1867.1 494.943 1864.13 493.589C1859.62 491.276 1852.72 492.592 1852.19 485.35C1851.36 489.18 1849.54 496.015 1844.6 496.015C1829.67 496.925 1824.29 484.833 1823.25 472.032C1823.25 469.267 1824.9 467.405 1826.99 467.123C1830.73 467.123 1834.47 467.123 1838.22 467.123C1840.14 467.123 1841.24 466.615 1841.96 465.937C1842.89 465.035 1843.11 463.737 1843.11 462.213C1843.11 458.244 1843.11 452.141 1843.11 450.306C1843.11 447.91 1845.2 446.469 1847.9 446.469C1849.49 446.469 1850.98 446.525 1852.52 446.92C1855.88 447.767 1856.59 451.265 1856.59 451.265C1856.59 451.265 1862.92 452.394 1866.11 452.958C1869.14 453.523 1876.62 454.031 1878.05 461.762C1881.41 480.158 1879.37 497.99 1879.21 497.99C1876.84 515.371 1862.76 514.525 1862.76 514.525C1857.64 514.525 1852.14 511.03 1852.14 505.439ZM1868.64 475.474C1866.83 475.305 1865.29 476.039 1864.74 477.449C1863.96 479.449 1872 481.111 1872 478.352C1871.78 476.772 1870.46 475.7 1868.64 475.474Z" fill="white"/>
<g filter="url(#filter7_d)">
<circle cx="1798.5" cy="805.5" r="31.0625" fill="#3290E8"/>
<path fill-rule="evenodd" clip-rule="evenodd" d="M1811.81 787.75H1785.19C1782.77 787.746 1780.75 789.773 1780.75 792.188V818.812C1780.75 821.263 1782.74 823.25 1785.19 823.25H1811.81C1814.23 823.254 1816.25 821.227 1816.25 818.812V792.188C1816.25 789.737 1814.26 787.75 1811.81 787.75ZM1803.23 794.258C1803.23 793.606 1803.76 793.075 1804.42 793.075C1805.07 793.075 1805.6 793.606 1805.6 794.258V810.069C1805.6 810.721 1805.07 811.252 1804.42 811.252C1803.79 811.253 1803.23 810.697 1803.23 810.069L1803.23 794.258ZM1797.32 793.66C1797.32 793.006 1797.85 792.476 1798.5 792.476C1799.15 792.476 1799.68 793.006 1799.68 793.66V810.818C1799.68 811.472 1799.15 812.001 1798.5 812.001C1797.87 812.002 1797.32 811.447 1797.32 810.818L1797.32 793.66ZM1791.4 794.258C1791.4 793.606 1791.93 793.075 1792.58 793.075C1793.24 793.075 1793.77 793.606 1793.77 794.258V810.069C1793.77 810.721 1793.24 811.252 1792.58 811.252C1791.96 811.253 1791.4 810.697 1791.4 810.069V794.258ZM1785.48 796.625C1785.48 795.971 1786.01 795.442 1786.67 795.442C1787.32 795.442 1787.85 795.971 1787.85 796.625V807.268C1787.85 807.922 1787.32 808.451 1786.67 808.451C1786.02 808.453 1785.48 807.912 1785.48 807.268V796.625ZM1811.1 814.675C1810.92 814.833 1806.54 818.51 1798.5 818.51C1790.46 818.51 1786.08 814.832 1785.9 814.674C1785.41 814.255 1785.35 813.495 1785.77 813.006C1786.18 812.531 1786.96 812.47 1787.43 812.876C1787.5 812.934 1791.42 816.143 1798.5 816.143C1805.67 816.143 1809.52 812.911 1809.56 812.879C1810.04 812.47 1810.82 812.529 1811.23 813.006C1811.65 813.494 1811.59 814.256 1811.1 814.675ZM1811.52 807.269C1811.52 807.922 1810.99 808.452 1810.33 808.452C1809.69 808.453 1809.15 807.913 1809.15 807.269V796.625C1809.15 795.971 1809.68 795.442 1810.33 795.442C1810.99 795.442 1811.52 795.971 1811.52 796.625V807.269Z" fill="white"/>
</g>
<g filter="url(#filter8_d)">
<ellipse cx="549.094" cy="284.129" rx="29.0827" ry="29.118" fill="url(#paint4_linear)"/>
<path d="M542.61 267.025L561.772 263.217C562.645 263.043 563.459 263.712 563.459 264.602V293.961C563.459 296.46 561.711 298.619 559.266 299.139L557.573 299.499C554.624 300.126 551.847 297.878 551.847 294.863C551.847 292.739 553.278 290.882 555.332 290.341L560.13 289.079C560.781 288.907 561.235 288.319 561.235 287.645V274.014C561.235 273.388 560.659 272.919 560.046 273.047L544.078 276.365C543.587 276.468 543.235 276.9 543.235 277.402V297.758C543.235 300.492 541.322 302.853 538.648 303.42L537.487 303.666C534.448 304.311 531.588 301.993 531.588 298.887C531.588 296.908 532.92 295.176 534.833 294.669L539.855 293.337C540.474 293.173 540.905 292.613 540.905 291.972V269.102C540.905 268.092 541.619 267.222 542.61 267.025Z" fill="url(#paint5_radial)"/>
<path fill-rule="evenodd" clip-rule="evenodd" d="M581 284.094C581 301.715 566.715 316 549.094 316C531.472 316 517.188 301.715 517.188 284.094C517.188 266.472 531.472 252.188 549.094 252.188C566.715 252.188 581 266.472 581 284.094ZM578.176 284.129C578.176 300.21 565.156 313.247 549.094 313.247C533.032 313.247 520.011 300.21 520.011 284.129C520.011 268.048 533.032 255.011 549.094 255.011C565.156 255.011 578.176 268.048 578.176 284.129Z" fill="url(#paint6_radial)"/>
</g>
<g filter="url(#filter9_d)">
<path d="M426.75 744C410.341 744 397 757.341 397 773.75C397 790.159 410.341 803.5 426.75 803.5C443.159 803.5 456.5 790.159 456.5 773.75C456.5 757.341 443.159 744 426.75 744Z" fill="#00AF87"/>
<path d="M414 775.875C414 774.619 414.966 773.75 416.125 773.75C417.284 773.75 418.25 774.619 418.25 775.875C418.25 777.131 417.381 778 416.125 778C414.869 778 414 777.034 414 775.875Z" fill="white"/>
<path fill-rule="evenodd" clip-rule="evenodd" d="M416.125 769.5C412.648 769.5 409.75 772.108 409.75 775.875C409.75 779.352 412.358 782.25 416.125 782.25C419.892 782.25 422.5 779.642 422.5 775.875C422.5 772.108 419.602 769.5 416.125 769.5ZM416.125 771.625C413.807 771.625 411.875 773.364 411.875 775.875C411.875 778.193 413.614 780.125 416.125 780.125C418.636 780.125 420.375 778.386 420.375 775.875C420.375 773.364 418.443 771.625 416.125 771.625Z" fill="white"/>
<path d="M439.5 775.875C439.5 774.619 438.534 773.75 437.375 773.75C436.216 773.75 435.25 774.619 435.25 775.875C435.25 777.131 436.119 778 437.375 778C438.631 778 439.5 777.034 439.5 775.875Z" fill="white"/>
<path fill-rule="evenodd" clip-rule="evenodd" d="M437.375 769.5C440.852 769.5 443.75 772.108 443.75 775.875C443.75 779.352 441.142 782.25 437.375 782.25C433.608 782.25 431 779.642 431 775.875C431 772.108 433.898 769.5 437.375 769.5ZM437.375 771.625C439.693 771.625 441.625 773.364 441.625 775.875C441.625 778.193 439.886 780.125 437.375 780.125C434.864 780.125 433.125 778.386 433.125 775.875C433.125 773.364 435.057 771.625 437.375 771.625Z" fill="white"/>
<path fill-rule="evenodd" clip-rule="evenodd" d="M411.875 765.216C415.809 762.727 421.291 761 426.75 761C432.209 761 437.691 762.727 441.625 765.216L448 765.25L445.736 769.47C447.02 771.156 448 773.547 448 775.875C448 781.735 443.006 786.5 437.307 786.5C433.935 786.5 430.882 784.578 428.875 782.25L426.75 786.5L424.625 782.25C422.618 784.578 419.565 786.5 416.193 786.5C410.494 786.5 405.5 781.735 405.5 775.875C405.5 773.547 406.48 771.156 407.764 769.47L405.5 765.25L411.875 765.216ZM426.75 774.812C427.151 769.434 431.848 765.33 437.307 765.25C434.336 763.966 430.523 763.125 426.75 763.125C422.977 763.125 419.164 763.966 416.193 765.25C421.652 765.33 426.349 769.434 426.75 774.812ZM416.193 784.413C411.537 784.413 407.625 780.531 407.625 775.875C407.625 771.219 411.537 767.303 416.193 767.303C420.85 767.303 424.623 771.219 424.623 775.875C424.623 780.451 420.85 784.413 416.193 784.413ZM437.307 784.413C441.963 784.413 445.875 780.531 445.875 775.875C445.875 771.219 441.963 767.303 437.307 767.303C432.65 767.303 428.877 771.219 428.877 775.875C428.877 780.451 432.65 784.413 437.307 784.413Z" fill="white"/>
</g>
</g>
<defs>
<filter id="filter0_f" x="1221" y="211" width="1123" height="796" filterUnits="userSpaceOnUse" color-interpolation-filters="sRGB">
<feFlood flood-opacity="0" result="BackgroundImageFix"/>
<feBlend mode="normal" in="SourceGraphic" in2="BackgroundImageFix" result="shape"/>
<feGaussianBlur stdDeviation="75" result="effect1_foregroundBlur"/>
</filter>
<filter id="filter1_f" x="-80" y="195" width="1123" height="796" filterUnits="userSpaceOnUse" color-interpolation-filters="sRGB">
<feFlood flood-opacity="0" result="BackgroundImageFix"/>
<feBlend mode="normal" in="SourceGraphic" in2="BackgroundImageFix" result="shape"/>
<feGaussianBlur stdDeviation="75" result="effect1_foregroundBlur"/>
</filter>
<filter id="filter2_d" x="492.25" y="563.5" width="170.5" height="170.5" filterUnits="userSpaceOnUse" color-interpolation-filters="sRGB">
<feFlood flood-opacity="0" result="BackgroundImageFix"/>
<feColorMatrix in="SourceAlpha" type="matrix" values="0 0 0 0 0 0 0 0 0 0 0 0 0 0 0 0 0 0 127 0" result="hardAlpha"/>
<feOffset dy="23.25"/>
<feGaussianBlur stdDeviation="19.375"/>
<feComposite in2="hardAlpha" operator="out"/>
<feColorMatrix type="matrix" values="0 0 0 0 0 0 0 0 0 0 0 0 0 0 0 0 0 0 0.25 0"/>
<feBlend mode="normal" in2="BackgroundImageFix" result="effect1_dropShadow"/>
<feBlend mode="normal" in="SourceGraphic" in2="effect1_dropShadow" result="shape"/>
</filter>
<filter id="filter3_d" x="1645.06" y="242.062" width="156.875" height="156.875" filterUnits="userSpaceOnUse" color-interpolation-filters="sRGB">
<feFlood flood-opacity="0" result="BackgroundImageFix"/>
<feColorMatrix in="SourceAlpha" type="matrix" values="0 0 0 0 0 0 0 0 0 0 0 0 0 0 0 0 0 0 127 0" result="hardAlpha"/>
<feOffset dy="30"/>
<feGaussianBlur stdDeviation="25"/>
<feComposite in2="hardAlpha" operator="out"/>
<feColorMatrix type="matrix" values="0 0 0 0 0 0 0 0 0 0 0 0 0 0 0 0 0 0 0.25 0"/>
<feBlend mode="normal" in2="BackgroundImageFix" result="effect1_dropShadow"/>
<feBlend mode="normal" in="SourceGraphic" in2="effect1_dropShadow" result="shape"/>
</filter>
<filter id="filter4_d" x="427.976" y="410.39" width="142.049" height="142.049" filterUnits="userSpaceOnUse" color-interpolation-filters="sRGB">
<feFlood flood-opacity="0" result="BackgroundImageFix"/>
<feColorMatrix in="SourceAlpha" type="matrix" values="0 0 0 0 0 0 0 0 0 0 0 0 0 0 0 0 0 0 127 0" result="hardAlpha"/>
<feOffset dy="23.4146"/>
<feGaussianBlur stdDeviation="19.5122"/>
<feComposite in2="hardAlpha" operator="out"/>
<feColorMatrix type="matrix" values="0 0 0 0 0 0 0 0 0 0 0 0 0 0 0 0 0 0 0.25 0"/>
<feBlend mode="normal" in2="BackgroundImageFix" result="effect1_dropShadow"/>
<feBlend mode="normal" in="SourceGraphic" in2="effect1_dropShadow" result="shape"/>
</filter>
<filter id="filter5_d" x="1621.29" y="589.164" width="160.179" height="160.179" filterUnits="userSpaceOnUse" color-interpolation-filters="sRGB">
<feFlood flood-opacity="0" result="BackgroundImageFix"/>
<feColorMatrix in="SourceAlpha" type="matrix" values="0 0 0 0 0 0 0 0 0 0 0 0 0 0 0 0 0 0 127 0" result="hardAlpha"/>
<feOffset dy="25.6286"/>
<feGaussianBlur stdDeviation="21.3571"/>
<feComposite in2="hardAlpha" operator="out"/>
<feColorMatrix type="matrix" values="0 0 0 0 0 0 0 0 0 0 0 0 0 0 0 0 0 0 0.25 0"/>
<feBlend mode="normal" in2="BackgroundImageFix" result="effect1_dropShadow"/>
<feBlend mode="normal" in="SourceGraphic" in2="effect1_dropShadow" result="shape"/>
</filter>
<filter id="filter6_d" x="1750.56" y="407.562" width="205.875" height="205.875" filterUnits="userSpaceOnUse" color-interpolation-filters="sRGB">
<feFlood flood-opacity="0" result="BackgroundImageFix"/>
<feColorMatrix in="SourceAlpha" type="matrix" values="0 0 0 0 0 0 0 0 0 0 0 0 0 0 0 0 0 0 127 0" result="hardAlpha"/>
<feOffset dy="30"/>
<feGaussianBlur stdDeviation="25"/>
<feComposite in2="hardAlpha" operator="out"/>
<feColorMatrix type="matrix" values="0 0 0 0 0 0 0 0 0 0 0 0 0 0 0 0 0 0 0.25 0"/>
<feBlend mode="normal" in2="BackgroundImageFix" result="effect1_dropShadow"/>
<feBlend mode="normal" in="SourceGraphic" in2="effect1_dropShadow" result="shape"/>
</filter>
<filter id="filter7_d" x="1717.44" y="754.438" width="162.125" height="162.125" filterUnits="userSpaceOnUse" color-interpolation-filters="sRGB">
<feFlood flood-opacity="0" result="BackgroundImageFix"/>
<feColorMatrix in="SourceAlpha" type="matrix" values="0 0 0 0 0 0 0 0 0 0 0 0 0 0 0 0 0 0 127 0" result="hardAlpha"/>
<feOffset dy="30"/>
<feGaussianBlur stdDeviation="25"/>
<feComposite in2="hardAlpha" operator="out"/>
<feColorMatrix type="matrix" values="0 0 0 0 0 0 0 0 0 0 0 0 0 0 0 0 0 0 0.25 0"/>
<feBlend mode="normal" in2="BackgroundImageFix" result="effect1_dropShadow"/>
<feBlend mode="normal" in="SourceGraphic" in2="effect1_dropShadow" result="shape"/>
</filter>
<filter id="filter8_d" x="480.355" y="237.454" width="137.478" height="137.478" filterUnits="userSpaceOnUse" color-interpolation-filters="sRGB">
<feFlood flood-opacity="0" result="BackgroundImageFix"/>
<feColorMatrix in="SourceAlpha" type="matrix" values="0 0 0 0 0 0 0 0 0 0 0 0 0 0 0 0 0 0 127 0" result="hardAlpha"/>
<feOffset dy="22.0996"/>
<feGaussianBlur stdDeviation="18.4163"/>
<feComposite in2="hardAlpha" operator="out"/>
<feColorMatrix type="matrix" values="0 0 0 0 0 0 0 0 0 0 0 0 0 0 0 0 0 0 0.25 0"/>
<feBlend mode="normal" in2="BackgroundImageFix" result="effect1_dropShadow"/>
<feBlend mode="normal" in="SourceGraphic" in2="effect1_dropShadow" result="shape"/>
</filter>
<filter id="filter9_d" x="347" y="724" width="159.5" height="159.5" filterUnits="userSpaceOnUse" color-interpolation-filters="sRGB">
<feFlood flood-opacity="0" result="BackgroundImageFix"/>
<feColorMatrix in="SourceAlpha" type="matrix" values="0 0 0 0 0 0 0 0 0 0 0 0 0 0 0 0 0 0 127 0" result="hardAlpha"/>
<feOffset dy="30"/>
<feGaussianBlur stdDeviation="25"/>
<feComposite in2="hardAlpha" operator="out"/>
<feColorMatrix type="matrix" values="0 0 0 0 0 0 0 0 0 0 0 0 0 0 0 0 0 0 0.25 0"/>
<feBlend mode="normal" in2="BackgroundImageFix" result="effect1_dropShadow"/>
<feBlend mode="normal" in="SourceGraphic" in2="effect1_dropShadow" result="shape"/>
</filter>
<linearGradient id="paint0_linear" x1="2194" y1="404.88" x2="1441.77" y2="878.168" gradientUnits="userSpaceOnUse">
<stop stop-color="#02A0D2"/>
<stop offset="0.546875" stop-color="#BC27D5"/>
<stop offset="1" stop-color="#E40B8E"/>
</linearGradient>
<linearGradient id="paint1_linear" x1="893" y1="388.88" x2="140.772" y2="862.168" gradientUnits="userSpaceOnUse">
<stop stop-color="#02A0D2"/>
<stop offset="0.546875" stop-color="#BC27D5"/>
<stop offset="1" stop-color="#E40B8E"/>
</linearGradient>
<linearGradient id="paint2_linear" x1="577.5" y1="584.812" x2="577.5" y2="665.946" gradientUnits="userSpaceOnUse">
<stop stop-color="#18ACFE"/>
<stop offset="1" stop-color="#0163E0"/>
</linearGradient>
<radialGradient id="paint3_radial" cx="0" cy="0" r="1" gradientUnits="userSpaceOnUse" gradientTransform="translate(1701.38 681) scale(79.8577)">
<stop stop-color="#FF7854"/>
<stop offset="1" stop-color="#FD267D"/>
</radialGradient>
<linearGradient id="paint4_linear" x1="549.094" y1="255.011" x2="549.094" y2="313.247" gradientUnits="userSpaceOnUse">
<stop stop-color="white"/>
<stop offset="1" stop-color="#DDE2E7"/>
</linearGradient>
<radialGradient id="paint5_radial" cx="0" cy="0" r="1" gradientUnits="userSpaceOnUse" gradientTransform="translate(531.588 310.847) rotate(-55.1325) scale(63.8374 50.1309)">
<stop stop-color="#7A66FB"/>
<stop offset="0.440198" stop-color="#52A2F4"/>
<stop offset="0.702" stop-color="#FC5D6D"/>
<stop offset="1" stop-color="#E85E7B"/>
</radialGradient>
<radialGradient id="paint6_radial" cx="0" cy="0" r="1" gradientUnits="userSpaceOnUse" gradientTransform="translate(531.588 310.847) rotate(-55.1325) scale(63.8374 50.1309)">
<stop stop-color="#7A66FB"/>
<stop offset="0.440198" stop-color="#52A2F4"/>
<stop offset="0.702" stop-color="#FC5D6D"/>
<stop offset="1" stop-color="#E85E7B"/>
</radialGradient>
<clipPath id="clip0">
<rect width="2298" height="1399" fill="white"/>
</clipPath>
</defs>
</svg>
